<svg width="30" height="30" xmlns="http://www.w3.org/2000/svg">
<desc>Source: https://www.iconfinder.com/icons/765195/media_social_youtube_icon</desc>
 <g>
  <title>YouTube background</title>
  <rect fill="none" id="canvas_background" height="402" width="582" y="-1" x="-1"/>
 </g>
 <g>
  <title>YouTube logo</title>
  <path fill="#ffffff" id="svg_2" d="m29.699,8.539c0,0 -0.293,-2.067 -1.191,-2.979c-1.141,-1.194 -2.42,-1.2 -3.006,-1.271c-4.199,-0.303 -10.502,-0.303 -10.502,-0.303s-6.304,0 -10.502,0.304c-0.586,0.07 -1.865,0.076 -3.006,1.271c-0.9,0.911 -1.192,2.978 -1.192,2.978s-0.3,2.02 -0.3,4.447l0,3.001c0,2.427 0.3,4.539 0.3,4.539s0.292,2.066 1.192,2.977c1.141,1.195 2.64,1.158 3.308,1.283c2.4,0.23 10.2,0.201 10.2,0.201s6.303,0.09 10.502,-0.213c0.586,-0.07 1.865,-0.076 3.006,-1.271c0.898,-0.91 1.191,-2.977 1.191,-2.977s0.301,-2.111 0.301,-4.538l0,-3.001c0,-2.428 -0.301,-4.448 -0.301,-4.448zm-18.699,9.954l0,-8l8,4l-8,4z"/>
 </g>
</svg>
