<svg width="512" height="512" xmlns="http://www.w3.org/2000/svg">
 <desc>Source: https://www.iconfinder.com/icons/211911/reddit_social_icon</desc>
 <g>
  <title>background</title>
  <rect fill="none" id="canvas_background" height="402" width="582" y="-1" x="-1"/>
 </g>
 <g>
  <title>Layer 1</title>
  <circle fill="#fe4703" id="svg_2" r="31.8" cy="288.4" cx="322.3"/>
  <circle fill="#fe4703" id="svg_3" r="31.8" cy="288.4" cx="190.3"/>
  <path id="svg_5" d="m480.5,251c0,-27.7 -22.2,-50.2 -49.5,-50.2c-13,0 -24.7,5 -33.6,13.3c-33.2,-23.4 -78.4,-38.5 -128.7,-40.7l23.3,-77.7l69.6,13.9c0.2,24.7 20.1,44.7 44.5,44.7c24.6,0 44.5,-20.2 44.5,-45.1s-19.9,-45.2 -44.5,-45.2c-18.6,0 -34.5,11.6 -41.2,28l-85.2,-17l-29.4,98.2l-7.1,0.2c-50.3,2.2 -95.5,17.4 -128.7,40.7c-8.8,-8.3 -20.6,-13.3 -33.6,-13.3c-27.3,0 -49.5,22.5 -49.5,50.2c0,19.6 11,36.5 27.1,44.8c-0.8,4.9 -1.2,9.8 -1.2,14.8c0.2,75.8 89.1,137.4 198.7,137.4s198.5,-61.6 198.5,-137.5c0,-5 -0.4,-9.9 -1.1,-14.8c16.1,-8.3 27.1,-25.2 27.1,-44.7zm-74.4,-169.1c14.8,0 26.8,12.2 26.8,27.2c0,15 -12,27.2 -26.8,27.2c-14.8,0 -26.8,-12.2 -26.8,-27.2c0,-15 12,-27.2 26.8,-27.2zm-356.9,169.1c0,-17.8 14.3,-32.2 31.8,-32.2c7.2,0 13.9,2.5 19.2,6.6c-17.3,15.2 -30.1,33 -37,52.4c-8.4,-5.9 -14,-15.7 -14,-26.8zm337.2,141.9c-34.6,23.9 -80.9,37.1 -130.4,37.1s-95.8,-13.2 -130.4,-37.1c-32.5,-22.5 -50.4,-51.8 -50.4,-82.4c0,-3.2 0.2,-6.5 0.6,-9.7c0.7,-6 2.2,-11.9 4.3,-17.7c5.6,-15.6 16,-30.3 30.7,-43.4c4.4,-3.9 9.2,-7.7 14.4,-11.3c0.1,-0.1 0.3,-0.2 0.4,-0.3c34.6,-23.9 80.9,-37.1 130.4,-37.1c49.5,0 95.8,13.2 130.4,37.1c0.1,0.1 0.3,0.2 0.4,0.3c5.2,3.6 10,7.4 14.4,11.3c14.7,13.1 25.1,27.8 30.7,43.4c2.1,5.8 3.5,11.7 4.3,17.7c0.4,3.2 0.6,6.4 0.6,9.7c0,30.6 -17.9,59.9 -50.4,82.4zm62.4,-115.2c-6.9,-19.4 -19.7,-37.2 -37,-52.4c5.3,-4.1 12,-6.6 19.2,-6.6c17.5,0 31.8,14.5 31.8,32.2c0,11.2 -5.6,21 -14,26.8z"/>
  <path id="svg_6" d="m320.5,357.9c-0.2,0.2 -24.2,24.2 -64.5,24.4c-40.9,-0.2 -64.4,-24.2 -64.6,-24.4l-12.6,12.4c1.2,1.2 29.6,29.5 77.2,29.7c47.6,-0.2 75.9,-28.5 77.1,-29.7l-12.6,-12.4z"/>
 </g>
</svg>
